<svg width="42" height="48" viewBox="0 0 42 48" fill="none" xmlns="http://www.w3.org/2000/svg">
<path d="M38.2678 34.0299C37.7892 33.6788 37.5802 33.3832 37.035 33.1485V28.5C36.4999 24 34.8244 21.5488 31.9999 19.006C30.5776 17.7249 28.2018 16.7212 26.4104 16.0467C28.5526 14.4124 29.9377 11.8341 29.9377 8.93776C29.9376 4.0095 25.9282 0 20.9999 0C16.0715 0 12.0621 4.0095 12.0621 8.93776C12.0621 11.8341 13.4473 14.4125 15.5895 16.0467C13.798 16.7213 11.4222 17.7249 9.99988 19.006C7.17538 21.5488 5.89775 24.7205 5.49988 28.5L4.99988 33.1485C4.45463 33.3832 4.21051 33.6789 3.73186 34.03C1.72149 35.5023 0.568359 37.776 0.568359 40.268C0.568359 44.5316 4.03702 48.0001 8.30049 48.0001H33.699C37.9625 48.0001 41.4311 44.5316 41.4311 40.268C41.4313 37.776 40.2783 35.5022 38.2678 34.0299ZM4.49988 40C4.49988 38.4145 5.55911 37.3228 5.99988 37C6.44064 36.6772 7.49988 36 8.99982 36.1772C9.49951 36.1772 11.5047 36.8433 11.9999 37L15.1615 38C11.8613 39.2136 10.5037 40.5759 9.99988 44H7.49988C6.49988 44 4.49988 42.7128 4.49988 40ZM15.4999 9C15.4999 5.62256 17.6224 3.375 20.9998 3.375C24.3773 3.375 26.6248 5.56032 26.6248 8.93776C26.6248 12.3151 24.3772 14.5 20.9998 14.5C17.6224 14.5 15.4999 12.3773 15.4999 9ZM29.9998 33.1485V26.1287H25.9999V34L20.9999 36L15.9999 34V26.1287L11.9999 26L11.9998 33.1485C11.1849 32.8906 10.4999 32.5 8.99988 32.5L9.49988 28.5C10.1738 22.0982 14.5626 19.006 20.9999 19.006C27.437 19.006 32.2406 22.8482 32.9145 29.25L32.9999 32.5C32.1781 32.488 30.8147 32.8906 29.9998 33.1485ZM15.1615 44C15.6549 41.6701 16.6546 41.2423 18.9999 40.5L30.9999 36.375C32.5115 35.8966 34.7208 36.0632 35.9999 37C37.2791 37.9368 37.2366 39.2393 37.2366 40.268C37.2366 42.5 35.2125 44 32.4999 44H28.9999H15.1615Z" fill="black"/>
</svg>
