<svg width="48" height="43" viewBox="0 0 48 43" fill="none" xmlns="http://www.w3.org/2000/svg">
<path d="M42.4533 3.02683C41.92 1.4535 40.4267 0.333496 38.6667 0.333496H9.33333C7.57333 0.333496 6.10667 1.4535 5.54667 3.02683L0 19.0002V40.3335C0 41.8002 1.2 43.0002 2.66667 43.0002H5.33333C6.8 43.0002 8 41.8002 8 40.3335V37.6668H40V40.3335C40 41.8002 41.2 43.0002 42.6667 43.0002H45.3333C46.8 43.0002 48 41.8002 48 40.3335V19.0002L42.4533 3.02683ZM10.2667 5.66683H37.7067L40.48 13.6668H7.49333L10.2667 5.66683ZM42.6667 32.3335H5.33333V19.0002H42.6667V32.3335Z" fill="black"/>
<path d="M12 29.667C14.2091 29.667 16 27.8761 16 25.667C16 23.4579 14.2091 21.667 12 21.667C9.79086 21.667 8 23.4579 8 25.667C8 27.8761 9.79086 29.667 12 29.667Z" fill="black"/>
<path d="M36 29.667C38.2091 29.667 40 27.8761 40 25.667C40 23.4579 38.2091 21.667 36 21.667C33.7909 21.667 32 23.4579 32 25.667C32 27.8761 33.7909 29.667 36 29.667Z" fill="black"/>
</svg>
