<svg width="58" height="48" viewBox="0 0 58 48" fill="none" xmlns="http://www.w3.org/2000/svg">
<path d="M56.0001 44.1877H53.8751V17.8126H56.0001C57.0356 17.8126 57.8751 16.9731 57.8751 15.9376C57.8751 14.9021 57.0356 14.0626 56.0001 14.0626H55.6251C55.6251 14.0626 43 4.69503e-05 36.875 1.61085e-05C30.75 -1.47333e-05 27.2502 3.28559e-06 21.1251 3.18441e-05C15 6.04026e-05 2.37501 14.0626 2.37501 14.0626H2.00001C0.964503 14.0626 0.125 14.9021 0.125 15.9376C0.125 16.9731 0.964503 17.8126 2.00001 17.8126H4.12502V44.1877H2.00001C0.964503 44.1877 0.125 45.0272 0.125 46.0627C0.125 47.0982 0.964503 47.9377 2.00001 47.9377H56.0002C57.0357 47.9377 57.8752 47.0982 57.8752 46.0627C57.8752 45.0272 57.0356 44.1877 56.0001 44.1877ZM50.1251 34.0626H39.875V17.8126H50.1251V34.0626ZM21.875 17.8126H36.125V44.1877H21.875V17.8126ZM18.1249 17.8126V34.0626H7.87491V17.8126H18.1249ZM7.87491 37.8127H11.1249V44.1877H7.87491V37.8127ZM14.8749 44.1877V37.8127H18.1249V44.1877H14.8749ZM39.875 37.8127H43.125V44.1877H39.875V37.8127ZM46.8751 44.1877V37.8127H50.1251V44.1877H46.8751Z" fill="black"/>
</svg>
