<svg width="48" height="48" viewBox="0 0 48 48" fill="none" xmlns="http://www.w3.org/2000/svg">
<path d="M45.3333 5.33333V2.66667C45.3333 1.2 44.1333 0 42.6667 0H37.3333C35.8667 0 34.6667 1.2 34.6667 2.66667V5.33333H32V16C32 17.4667 33.2 18.6667 34.6667 18.6667H37.3333V37.3333C37.3333 40.2667 34.9333 42.6667 32 42.6667C29.0667 42.6667 26.6667 40.2667 26.6667 37.3333V10.6667C26.6667 4.77333 21.8933 0 16 0C10.1067 0 5.33333 4.77333 5.33333 10.6667V29.3333H2.66667C1.2 29.3333 0 30.5333 0 32V42.6667H2.66667V45.3333C2.66667 46.8 3.86667 48 5.33333 48H10.6667C12.1333 48 13.3333 46.8 13.3333 45.3333V42.6667H16V32C16 30.5333 14.8 29.3333 13.3333 29.3333H10.6667V10.6667C10.6667 7.73333 13.0667 5.33333 16 5.33333C18.9333 5.33333 21.3333 7.73333 21.3333 10.6667V37.3333C21.3333 43.2267 26.1067 48 32 48C37.8933 48 42.6667 43.2267 42.6667 37.3333V18.6667H45.3333C46.8 18.6667 48 17.4667 48 16V5.33333H45.3333Z" fill="black"/>
</svg>
