<svg width="64" height="56" viewBox="0 0 64 56" fill="none" xmlns="http://www.w3.org/2000/svg">
<path d="M47.093 26.9301C46.8793 26.9301 46.6596 26.9607 46.4407 27.0212L43.9621 27.7037L41.3882 21.4341C40.659 19.6578 38.5038 18.2129 36.5837 18.2129H12.4961C10.5762 18.2129 8.42082 19.6578 7.69159 21.4341L5.12115 27.6953L2.67384 27.0214C2.46143 26.9619 2.24196 26.9312 2.02136 26.9303C0.849905 26.9303 0 27.8252 0 29.0581V30.5197C0 31.9589 1.17096 33.1297 2.61017 33.1297H2.89052L2.47519 34.1414C1.79778 35.7919 1.24672 38.5857 1.24672 40.3694V52.825C1.24672 54.2643 2.41769 55.435 3.8569 55.435H7.26614C8.70535 55.435 9.87632 54.2643 9.87632 52.825V49.7142H39.2047V52.825C39.2047 54.2643 40.3757 55.435 41.8149 55.435H45.2236C46.6628 55.435 47.8338 54.2643 47.8338 52.825V40.3694C47.8338 38.5854 47.2827 35.7917 46.6053 34.1414L46.19 33.1297H46.5051C47.9444 33.1297 49.1153 31.9589 49.1153 30.5197V29.0581C49.1143 27.8249 48.2642 26.9301 47.093 26.9301ZM6.99296 31.7119L10.8861 22.228C11.3222 21.1656 12.6188 20.2962 13.7673 20.2962H35.3125C36.461 20.2962 37.7573 21.1653 38.1936 22.228L42.0868 31.7119C42.5231 32.7743 41.9402 33.6434 40.7917 33.6434H8.28805C7.13979 33.6434 6.5569 32.7743 6.99296 31.7119ZM15.6842 43.7073C15.6834 43.9839 15.5731 44.2489 15.3776 44.4445C15.182 44.6401 14.917 44.7503 14.6404 44.7512H7.24393C6.96732 44.7504 6.70226 44.6402 6.50667 44.4446C6.31107 44.249 6.20084 43.9839 6.20006 43.7073V40.1577C6.20091 39.8811 6.31116 39.616 6.50674 39.4205C6.70232 39.2249 6.96734 39.1146 7.24393 39.1138H14.6401C14.9167 39.1146 15.1818 39.2248 15.3774 39.4204C15.573 39.616 15.6832 39.881 15.684 40.1577L15.6842 43.7073ZM42.8096 43.7073C42.8088 43.9839 42.6985 44.2489 42.503 44.4445C42.3074 44.6401 42.0424 44.7503 41.7658 44.7512H34.3698C34.0932 44.7504 33.8281 44.6402 33.6325 44.4446C33.437 44.249 33.3267 43.9839 33.3259 43.7073V40.1577C33.3268 39.8811 33.437 39.616 33.6326 39.4205C33.8282 39.2249 34.0932 39.1146 34.3698 39.1138H41.7658C42.0424 39.1146 42.3074 39.2248 42.503 39.4204C42.6986 39.616 42.8089 39.881 42.8096 40.1577V43.7073Z" fill="black"/>
<path d="M61.8624 14.8153H57.4772L11.6995 0.223255C11.4904 0.156495 11.2722 0.12253 11.0527 0.122569C10.5987 0.121169 10.1561 0.264751 9.78929 0.532404C9.42252 0.800058 9.15077 1.17781 9.01361 1.61064L8.02205 4.72128C7.9362 4.9886 7.90424 5.27029 7.92805 5.55005C7.95186 5.8298 8.03095 6.10205 8.16074 6.35101C8.28866 6.60092 8.46489 6.82296 8.67924 7.00426C8.89358 7.18557 9.14178 7.32253 9.40944 7.40722L54.1121 21.6564V53.7401C54.1121 54.9187 55.0711 55.8777 56.2497 55.8777H61.8624C63.041 55.8777 64 54.9187 64 53.7401V16.9529C64 15.774 63.041 14.8153 61.8624 14.8153ZM14.9782 4.03425L14.2887 6.19727C14.2056 6.45802 14.0418 6.68561 13.8209 6.84717C13.6 7.00872 13.3335 7.09587 13.0598 7.09603C12.8567 7.09614 12.6564 7.04829 12.4753 6.95639C12.2942 6.86448 12.1374 6.73112 12.0175 6.56715C11.8977 6.40318 11.8182 6.21323 11.7857 6.01276C11.7531 5.8123 11.7683 5.60697 11.8301 5.4135L12.5196 3.25048C12.6296 2.93203 12.8598 2.66922 13.161 2.5182C13.4622 2.36718 13.8105 2.33992 14.1315 2.44225C14.4525 2.54459 14.7208 2.76839 14.879 3.06586C15.0372 3.36333 15.0728 3.71087 14.9782 4.03425ZM22.5329 6.44232L21.8436 8.60508C21.7606 8.86588 21.5967 9.09353 21.3758 9.25513C21.1549 9.41673 20.8884 9.50392 20.6147 9.5041C20.4116 9.5042 20.2113 9.45635 20.0302 9.36445C19.8491 9.27255 19.6922 9.13918 19.5724 8.97521C19.4526 8.81124 19.3731 8.62129 19.3405 8.42083C19.308 8.22036 19.3232 8.01504 19.385 7.82156L20.0742 5.65879C20.1781 5.33276 20.4073 5.06135 20.7113 4.90427C21.0153 4.7472 21.3693 4.71733 21.6953 4.82123C22.0213 4.92513 22.2928 5.15429 22.4498 5.45831C22.6069 5.76232 22.6368 6.11628 22.5329 6.44232ZM30.0877 8.85038L29.3985 11.0134C29.2944 11.3393 29.0653 11.6106 28.7613 11.7677C28.4573 11.9247 28.1034 11.9547 27.7774 11.851C27.616 11.7995 27.4662 11.7168 27.3368 11.6075C27.2073 11.4982 27.1006 11.3644 27.0229 11.2139C26.9451 11.0634 26.8977 10.899 26.8835 10.7301C26.8692 10.5613 26.8884 10.3913 26.9398 10.2299L27.6293 8.06686C27.7385 7.74744 27.9686 7.48353 28.2701 7.33173C28.5716 7.17992 28.9206 7.15232 29.2422 7.25482C29.5638 7.35733 29.8325 7.58179 29.9906 7.88006C30.1486 8.17834 30.1835 8.52668 30.0877 8.85038ZM37.6424 11.2587L36.9531 13.4217C36.8491 13.7477 36.6199 14.019 36.316 14.1761C36.012 14.3331 35.6581 14.3631 35.332 14.2593C35.1706 14.2078 35.0209 14.1251 34.8914 14.0158C34.7619 13.9065 34.6553 13.7727 34.5775 13.6222C34.4997 13.4717 34.4523 13.3073 34.4381 13.1385C34.4239 12.9696 34.443 12.7996 34.4945 12.6382L35.184 10.4752C35.2353 10.3137 35.318 10.1639 35.4273 10.0344C35.5366 9.90484 35.6703 9.79813 35.8209 9.72034C35.9714 9.64255 36.1359 9.59521 36.3047 9.58101C36.4736 9.56681 36.6436 9.58604 36.805 9.6376C36.9665 9.68904 37.1162 9.77177 37.2457 9.88108C37.3751 9.9904 37.4818 10.1241 37.5595 10.2747C37.6373 10.4252 37.6846 10.5896 37.6988 10.7584C37.7131 10.9273 37.6939 11.0973 37.6424 11.2587ZM45.1972 13.6668L44.5077 15.8298C44.4037 16.1557 44.1746 16.4271 43.8706 16.5841C43.5666 16.7412 43.2127 16.7711 42.8867 16.6673C42.7252 16.6159 42.5755 16.5332 42.446 16.4239C42.3165 16.3145 42.2099 16.1808 42.1321 16.0303C42.0543 15.8797 42.007 15.7154 41.9927 15.5465C41.9785 15.3777 41.9976 15.2077 42.0491 15.0462L42.7386 12.8832C42.79 12.7218 42.8727 12.572 42.982 12.4425C43.0913 12.313 43.225 12.2063 43.3756 12.1285C43.5261 12.0507 43.6905 12.0034 43.8594 11.9891C44.0282 11.9749 44.1982 11.9941 44.3597 12.0457C44.5211 12.0971 44.6709 12.1798 44.8004 12.2891C44.9299 12.3984 45.0365 12.5321 45.1143 12.6827C45.1921 12.8332 45.2395 12.9976 45.2537 13.1665C45.2679 13.3353 45.2487 13.5053 45.1972 13.6668ZM52.7519 16.0746L52.0626 18.2373C51.9796 18.4981 51.8157 18.7258 51.5948 18.8874C51.3739 19.049 51.1074 19.1362 50.8337 19.1363C50.6306 19.1365 50.4303 19.0886 50.2492 18.9967C50.0681 18.9048 49.9112 18.7714 49.7914 18.6075C49.6715 18.4435 49.5921 18.2535 49.5595 18.0531C49.527 17.8526 49.5422 17.6473 49.604 17.4538L50.2932 15.291C50.3446 15.1296 50.4273 14.9798 50.5366 14.8503C50.6459 14.7208 50.7796 14.6141 50.9302 14.5363C51.0807 14.4585 51.2451 14.4112 51.414 14.397C51.5829 14.3828 51.7529 14.402 51.9143 14.4535C52.0757 14.5049 52.2255 14.5877 52.3549 14.697C52.4844 14.8063 52.5911 14.94 52.6689 15.0905C52.7466 15.2411 52.794 15.4055 52.8082 15.5743C52.8225 15.7431 52.8033 15.9131 52.7519 16.0746Z" fill="black"/>
</svg>
