<svg width="50" height="38" viewBox="0 0 50 38" fill="none" xmlns="http://www.w3.org/2000/svg">
<path d="M47.093 8.7172C46.8793 8.7172 46.6596 8.7478 46.4407 8.80826L43.9621 9.49085L41.3882 3.2212C40.659 1.44489 38.5038 0 36.5837 0H12.4961C10.5762 0 8.42082 1.44489 7.69159 3.2212L5.12115 9.48246L2.67384 8.80851C2.46143 8.74899 2.24196 8.71836 2.02136 8.71745C0.849905 8.71745 0 9.61226 0 10.8452V12.3068C0 13.746 1.17096 14.9168 2.61017 14.9168H2.89052L2.47519 15.9286C1.79778 17.579 1.24672 20.3728 1.24672 22.1565V34.6122C1.24672 36.0514 2.41769 37.2221 3.8569 37.2221H7.26614C8.70535 37.2221 9.87632 36.0514 9.87632 34.6122V31.5013H39.2047V34.6122C39.2047 36.0514 40.3757 37.2221 41.8149 37.2221H45.2236C46.6628 37.2221 47.8338 36.0514 47.8338 34.6122V22.1565C47.8338 20.3725 47.2827 17.5788 46.6053 15.9286L46.19 14.9168H46.5051C47.9444 14.9168 49.1153 13.746 49.1153 12.3068V10.8452C49.1143 9.61202 48.2642 8.7172 47.093 8.7172ZM6.99296 13.499L10.8861 4.01508C11.3222 2.9527 12.6188 2.0833 13.7673 2.0833H35.3125C36.461 2.0833 37.7573 2.95246 38.1936 4.01508L42.0868 13.499C42.5231 14.5614 41.9402 15.4306 40.7917 15.4306H8.28805C7.13979 15.4306 6.5569 14.5614 6.99296 13.499ZM15.6842 25.4944C15.6834 25.771 15.5731 26.036 15.3776 26.2316C15.182 26.4272 14.917 26.5375 14.6404 26.5383H7.24393C6.96732 26.5375 6.70226 26.4273 6.50667 26.2317C6.31107 26.0361 6.20084 25.771 6.20006 25.4944V21.9448C6.20091 21.6682 6.31116 21.4032 6.50674 21.2076C6.70232 21.012 6.96734 20.9017 7.24393 20.9009H14.6401C14.9167 20.9017 15.1818 21.0119 15.3774 21.2075C15.573 21.4031 15.6832 21.6682 15.684 21.9448L15.6842 25.4944ZM42.8096 25.4944C42.8088 25.771 42.6985 26.036 42.503 26.2316C42.3074 26.4272 42.0424 26.5375 41.7658 26.5383H34.3698C34.0932 26.5375 33.8281 26.4273 33.6325 26.2317C33.437 26.0361 33.3267 25.771 33.3259 25.4944V21.9448C33.3268 21.6682 33.437 21.4032 33.6326 21.2076C33.8282 21.012 34.0932 20.9017 34.3698 20.9009H41.7658C42.0424 20.9017 42.3074 21.0119 42.503 21.2075C42.6986 21.4031 42.8089 21.6682 42.8096 21.9448V25.4944Z" fill="black"/>
</svg>
