<svg width="39" height="54" viewBox="0 0 39 54" fill="none" xmlns="http://www.w3.org/2000/svg">
<path d="M10.626 0.20133C11.693 -0.298449 12.9618 0.164284 13.4599 1.23487L17.2838 9.4537C17.7819 10.5243 17.3207 11.7973 16.2537 12.2971C15.1867 12.7969 13.918 12.3341 13.4199 11.2636L9.59595 3.04473C9.09785 1.97414 9.55903 0.701109 10.626 0.20133Z" fill="black"/>
<path d="M29.2379 4.19077C29.8889 3.20625 29.6212 1.87862 28.64 1.22542C27.6588 0.572227 26.3356 0.840814 25.6846 1.82533L20.8241 9.17574C20.1731 10.1603 20.4408 11.4879 21.422 12.1411C22.4033 12.7943 23.7264 12.5257 24.3774 11.5412L29.2379 4.19077Z" fill="black"/>
<path d="M37.6928 14.2936C37.8818 15.4597 37.0927 16.5588 35.9304 16.7484L28.0599 18.0319C26.8976 18.2215 25.8022 17.4298 25.6133 16.2636C25.4244 15.0974 26.2134 13.9983 27.3757 13.8088L35.2463 12.5252C36.4086 12.3356 37.5039 13.1274 37.6928 14.2936Z" fill="black"/>
<path fill-rule="evenodd" clip-rule="evenodd" d="M27.5749 23.1335C26.6835 22.187 25.4612 21.5563 24.0941 21.4303V19.2793C24.0941 16.2525 21.637 13.7811 18.6086 13.7811C15.6154 13.7811 13.1231 16.202 13.1231 19.2793V29.5339C12.0805 28.5642 10.7274 28.0759 9.40201 28.0759C8.04151 28.0759 6.62828 28.5813 5.55211 29.6423C3.85831 31.3123 3.94038 33.3976 4.14099 34.4374C4.33965 35.467 4.77719 36.3175 5.07863 36.8294C6.56426 39.4147 8.18441 41.8487 9.54909 43.8975L9.55182 43.9016L9.63464 44.0265C10.6561 45.5676 11.5353 46.894 12.181 47.9912L12.1848 47.9977L12.1887 48.0041C12.565 48.6384 13.4534 50.4381 14.0343 51.6172L15.2081 53.9998H35.3198L36.2637 51.0154C36.7335 49.5303 37.3914 47.3294 37.937 45.2079C38.4307 43.2885 39 40.8272 39 39.1468V30.5947C39 27.5679 36.5429 25.0966 33.5145 25.0966C33.2963 25.0966 33.0808 25.1094 32.8687 25.1345C31.8638 23.8622 30.3099 23.0434 28.5667 23.0434C28.2288 23.0434 27.8972 23.0743 27.5749 23.1335ZM27.3454 28.5415C27.3454 27.8623 27.8934 27.322 28.5667 27.322C28.7326 27.322 28.8909 27.3557 29.0352 27.4165C29.048 27.4219 29.0606 27.4275 29.0732 27.4333C29.4945 27.6278 29.788 28.0557 29.788 28.5415V34.2378L29.7882 34.2598C29.7964 34.7366 30.0703 35.1453 30.4715 35.3494C30.5779 35.4035 30.6933 35.4432 30.815 35.466C30.893 35.4806 30.9737 35.4882 31.0563 35.4882C31.7608 35.4882 32.3245 34.9325 32.3245 34.2378L32.2932 30.5947C32.2932 29.9154 32.8412 29.3751 33.5145 29.3751C33.7073 29.3751 33.8899 29.4207 34.0522 29.5014C34.4507 29.6994 34.7274 30.1086 34.7356 30.5735L34.7358 30.5947V39.1468C34.7358 41.2308 33.1074 46.8499 32.1992 49.7212H17.857L17.8159 49.6377C17.2752 48.5401 16.326 46.6132 15.8529 45.8157C15.2442 44.7815 14.4642 43.5889 13.628 42.3253C13.4963 42.1262 13.3631 41.9254 13.229 41.7231L13.0972 41.5241C12.8957 41.2217 12.6906 40.9136 12.4827 40.6004L12.479 40.5948C11.6426 39.3342 10.7624 37.9898 9.90241 36.5899C9.73469 36.3169 9.56773 36.0418 9.40201 35.7647C9.18556 35.4029 8.97123 35.0379 8.76006 34.6701C8.70466 34.5768 8.65028 34.4784 8.59938 34.377C8.57538 34.3292 8.55215 34.2807 8.52996 34.2318C8.27993 33.6802 8.16077 33.0688 8.54085 32.6941C8.76006 32.478 9.0732 32.3545 9.40201 32.3545C9.71516 32.3545 10.0283 32.478 10.2475 32.6941L15.1483 38.2052C15.433 38.5242 15.8675 38.6744 16.2926 38.621C16.3818 38.6098 16.4706 38.5897 16.5575 38.5602C17.0585 38.375 17.3873 37.9119 17.3873 37.387V19.2793C17.3873 18.6 17.9353 18.0597 18.6086 18.0597C19.2819 18.0597 19.8299 18.6155 19.8299 19.2793V30.9806C19.8299 31.4792 20.1202 31.9062 20.5447 32.1075C20.7116 32.1867 20.8992 32.231 21.0981 32.231C21.297 32.231 21.4846 32.1867 21.6516 32.1075C22.076 31.9062 22.3664 31.4792 22.3664 30.9806V26.9052C22.3664 26.226 22.9144 25.6857 23.5877 25.6857C23.6803 25.6857 23.7706 25.6962 23.8574 25.7161C23.9397 25.7349 24.019 25.7622 24.0941 25.7969C24.5154 25.9915 24.8089 26.4194 24.8089 26.9052V32.6015C24.8089 33.1001 25.0993 33.5271 25.5237 33.7284C25.6238 33.7759 25.7314 33.8109 25.8443 33.8312C25.9198 33.8448 25.9976 33.8519 26.0772 33.8519C26.7818 33.8519 27.3454 33.2962 27.3454 32.6015V28.5415ZM12.3973 32.4315C12.3977 32.4315 12.4026 32.4403 12.4104 32.4576C12.4007 32.4401 12.3968 32.4314 12.3973 32.4315Z" fill="black"/>
<path d="M3.03013 9.7796C1.96199 9.28227 0.694277 9.7479 0.198607 10.8196C-0.297063 11.8913 0.167012 13.1633 1.23515 13.6607L9.33723 17.4331C10.4054 17.9304 11.6731 17.4648 12.1687 16.3931C12.6644 15.3213 12.2003 14.0494 11.1322 13.552L3.03013 9.7796Z" fill="black"/>
</svg>
