<svg width="36" height="58" viewBox="0 0 36 58" fill="none" xmlns="http://www.w3.org/2000/svg">
<path d="M3.53542 57.3333L11.2688 18.2667L4.53542 21.1333V30H0.46875V18.4667L13.2688 13.0667C13.891 12.8 14.5465 12.6333 15.2354 12.5667C15.9243 12.5 16.6021 12.5333 17.2687 12.6667C18.0243 12.8 18.6799 13.0444 19.2354 13.4C19.791 13.7556 20.2465 14.2 20.6021 14.7333L23.4021 19.1333C24.7799 21.2667 26.5021 22.9444 28.5687 24.1667C30.6354 25.3889 32.8465 26 35.2021 26V30C32.091 29.9111 29.3465 29.2333 26.9687 27.9667C24.591 26.7 22.4465 24.7556 20.5354 22.1333L18.0021 32.2667L24.1354 37.8V57.3333H20.1354V41.3333L12.9354 34.8L7.66875 57.3333H3.53542ZM21.0021 9.73333C19.6687 9.73333 18.5243 9.25556 17.5687 8.3C16.6132 7.34444 16.1354 6.2 16.1354 4.86667C16.1354 3.53333 16.6132 2.38889 17.5687 1.43333C18.5243 0.477778 19.6687 0 21.0021 0C22.3354 0 23.4799 0.477778 24.4354 1.43333C25.391 2.38889 25.8687 3.53333 25.8687 4.86667C25.8687 6.2 25.391 7.34444 24.4354 8.3C23.4799 9.25556 22.3354 9.73333 21.0021 9.73333Z" fill="black"/>
</svg>
