<svg width="28" height="28" viewBox="0 0 28 28" fill="none" xmlns="http://www.w3.org/2000/svg">
<path d="M27.3334 20.56V24.56C27.3349 24.9313 27.2589 25.2989 27.1101 25.6391C26.9613 25.9793 26.7431 26.2848 26.4695 26.5358C26.1959 26.7868 25.8728 26.9779 25.5211 27.0969C25.1693 27.2159 24.7966 27.2601 24.4267 27.2266C20.3239 26.7808 16.3827 25.3788 12.9201 23.1333C9.69851 21.0862 6.96719 18.3549 4.92007 15.1333C2.66671 11.6549 1.2644 7.69463 0.82674 3.5733C0.793421 3.20459 0.83724 2.83298 0.955407 2.48213C1.07357 2.13128 1.2635 1.80889 1.51309 1.53546C1.76269 1.26204 2.06648 1.04358 2.40513 0.893996C2.74378 0.744413 3.10986 0.666982 3.48007 0.666633H7.48007C8.12715 0.660265 8.75446 0.889405 9.24509 1.31134C9.73572 1.73328 10.0562 2.31923 10.1467 2.95997C10.3156 4.24006 10.6287 5.49694 11.0801 6.70663C11.2595 7.18387 11.2983 7.70252 11.1919 8.20114C11.0856 8.69976 10.8386 9.15745 10.4801 9.51997L8.78674 11.2133C10.6848 14.5514 13.4487 17.3152 16.7867 19.2133L18.4801 17.52C18.8426 17.1615 19.3003 16.9144 19.7989 16.8081C20.2975 16.7018 20.8162 16.7406 21.2934 16.92C22.5031 17.3714 23.76 17.6845 25.0401 17.8533C25.6878 17.9447 26.2793 18.2709 26.7021 18.77C27.125 19.269 27.3496 19.9061 27.3334 20.56Z" fill="black"/>
</svg>
