<svg width="48" height="48" viewBox="0 0 48 48" fill="none" xmlns="http://www.w3.org/2000/svg">
<path d="M3.66 22.2H11.88C11.6 20.28 11.04 18.47 10.2 16.77C9.36 15.07 8.32 13.6 7.08 12.36C6.16 13.76 5.38 15.28 4.74 16.92C4.1 18.56 3.74 20.32 3.66 22.2ZM36.12 22.2H44.34C44.26 20.32 43.9 18.56 43.26 16.92C42.62 15.28 41.84 13.76 40.92 12.36C39.56 13.72 38.49 15.22 37.71 16.86C36.93 18.5 36.4 20.28 36.12 22.2ZM7.08 35.58C8.44 34.22 9.51 32.73 10.29 31.11C11.07 29.49 11.6 27.72 11.88 25.8H3.66C3.74 27.68 4.1 29.43 4.74 31.05C5.38 32.67 6.16 34.18 7.08 35.58ZM40.92 35.58C41.84 34.18 42.62 32.67 43.26 31.05C43.9 29.43 44.26 27.68 44.34 25.8H36.12C36.4 27.72 36.93 29.49 37.71 31.11C38.49 32.73 39.56 34.22 40.92 35.58ZM15.54 22.2H22.2V3.66C19.72 3.94 17.41 4.58 15.27 5.58C13.13 6.58 11.2 7.92 9.48 9.6C11.12 11.24 12.46 13.14 13.5 15.3C14.54 17.46 15.22 19.76 15.54 22.2ZM25.8 22.2H32.46C32.78 19.76 33.47 17.46 34.53 15.3C35.59 13.14 36.94 11.24 38.58 9.6C36.86 7.92 34.92 6.58 32.76 5.58C30.6 4.58 28.28 3.94 25.8 3.66V22.2ZM22.2 44.34V25.8H15.54C15.22 28.24 14.54 30.53 13.5 32.67C12.46 34.81 11.12 36.7 9.48 38.34C11.2 40.02 13.08 41.37 15.12 42.39C17.16 43.41 19.52 44.06 22.2 44.34ZM25.8 44.34C28.48 44.06 30.85 43.41 32.91 42.39C34.97 41.37 36.86 40.02 38.58 38.34C36.94 36.7 35.59 34.81 34.53 32.67C33.47 30.53 32.78 28.24 32.46 25.8H25.8V44.34ZM24 48C20.68 48 17.56 47.37 14.64 46.11C11.72 44.85 9.18 43.14 7.02 40.98C4.86 38.82 3.15 36.28 1.89 33.36C0.63 30.44 0 27.32 0 24C0 20.68 0.63 17.56 1.89 14.64C3.15 11.72 4.86 9.18 7.02 7.02C9.18 4.86 11.72 3.15 14.64 1.89C17.56 0.63 20.68 0 24 0C27.32 0 30.44 0.63 33.36 1.89C36.28 3.15 38.82 4.86 40.98 7.02C43.14 9.18 44.85 11.72 46.11 14.64C47.37 17.56 48 20.68 48 24C48 27.32 47.37 30.44 46.11 33.36C44.85 36.28 43.14 38.82 40.98 40.98C38.82 43.14 36.28 44.85 33.36 46.11C30.44 47.37 27.32 48 24 48Z" fill="black"/>
</svg>
