<svg width="134" height="134" viewBox="0 0 134 134" fill="none" xmlns="http://www.w3.org/2000/svg">
<path d="M66.9999 93.6667C57.1333 93.6667 48.6666 88.2667 43.9999 80.3333H32.8666C38.1999 94 51.4666 103.667 66.9999 103.667C82.5332 103.667 95.7999 94 101.133 80.3333H89.9999C85.3333 88.2667 76.8666 93.6667 66.9999 93.6667ZM66.9333 0.333344C30.1332 0.333344 0.333252 30.2 0.333252 67C0.333252 103.8 30.1332 133.667 66.9333 133.667C103.8 133.667 133.667 103.8 133.667 67C133.667 30.2 103.8 0.333344 66.9333 0.333344ZM66.9999 120.333C37.5332 120.333 13.6666 96.4667 13.6666 67C13.6666 37.5333 37.5332 13.6667 66.9999 13.6667C96.4666 13.6667 120.333 37.5333 120.333 67C120.333 96.4667 96.4666 120.333 66.9999 120.333Z" fill="black"/>
</svg>
