<svg width="54" height="54" viewBox="0 0 54 54" fill="none" xmlns="http://www.w3.org/2000/svg">
<path d="M26.9999 37.6668C23.0533 37.6668 19.6666 35.5068 17.7999 32.3335H13.3466C15.4799 37.8002 20.7866 41.6668 26.9999 41.6668C33.2132 41.6668 38.5199 37.8002 40.6533 32.3335H36.1999C34.3332 35.5068 30.9466 37.6668 26.9999 37.6668ZM26.9732 0.333496C12.2533 0.333496 0.333252 12.2802 0.333252 27.0002C0.333252 41.7202 12.2533 53.6668 26.9732 53.6668C41.7199 53.6668 53.6666 41.7202 53.6666 27.0002C53.6666 12.2802 41.7199 0.333496 26.9732 0.333496ZM26.9999 48.3335C15.2133 48.3335 5.66658 38.7868 5.66658 27.0002C5.66658 15.2135 15.2133 5.66683 26.9999 5.66683C38.7866 5.66683 48.3332 15.2135 48.3332 27.0002C48.3332 38.7868 38.7866 48.3335 26.9999 48.3335Z" fill="black"/>
</svg>
