<svg width="60" height="44" viewBox="0 0 60 44" fill="none" xmlns="http://www.w3.org/2000/svg">
<path d="M14.5334 33.9998C16.9141 33.9998 19.2315 34.2776 21.4856 34.8332C23.7397 35.3887 25.9556 36.2221 28.1334 37.3332V8.8665C26.1334 7.53317 23.9641 6.49984 21.6255 5.7665C19.2869 5.03317 16.9229 4.6665 14.5334 4.6665C12.8445 4.6665 11.189 4.87762 9.56675 5.29984C7.94453 5.72206 6.31119 6.24428 4.66675 6.8665V35.7998C6.04453 35.1776 7.61119 34.7221 9.36675 34.4332C11.1223 34.1443 12.8445 33.9998 14.5334 33.9998ZM32.1334 37.3332C34.3556 36.2221 36.5334 35.3887 38.6668 34.8332C40.8001 34.2776 43.0667 33.9998 45.4668 33.9998C47.1556 33.9998 48.9001 34.1332 50.7001 34.3998C52.5001 34.6665 54.0445 35.0221 55.3334 35.4665V6.8665C53.8223 6.11095 52.2263 5.55539 50.5453 5.19984C48.8643 4.84428 47.1714 4.6665 45.4668 4.6665C43.0667 4.6665 40.7445 5.03317 38.5001 5.7665C36.2556 6.49984 34.1334 7.53317 32.1334 8.8665V37.3332ZM30.1334 43.3332C27.8667 41.6443 25.4001 40.3443 22.7334 39.4332C20.0667 38.5221 17.3334 38.0665 14.5334 38.0665C12.9095 38.0665 11.3147 38.2665 9.74888 38.6665C8.18301 39.0665 6.6223 39.5554 5.06675 40.1332C4.04008 40.6221 3.05008 40.5554 2.09675 39.9332C1.14341 39.311 0.666748 38.4221 0.666748 37.2665V6.39984C0.666748 5.73317 0.822304 5.12206 1.13341 4.5665C1.44453 4.01095 1.91119 3.57762 2.53341 3.2665C4.40008 2.37762 6.34219 1.72206 8.35975 1.29984C10.3773 0.877615 12.4351 0.666504 14.5334 0.666504C17.3334 0.666504 20.0556 1.04428 22.7001 1.79984C25.3445 2.55539 27.8223 3.71095 30.1334 5.2665C32.4001 3.71095 34.8334 2.55539 37.4334 1.79984C40.0334 1.04428 42.7112 0.666504 45.4668 0.666504C47.5498 0.666504 49.5928 0.877615 51.5957 1.29984C53.5986 1.72206 55.5334 2.37762 57.4001 3.2665C58.0223 3.57762 58.5001 4.01095 58.8334 4.5665C59.1668 5.12206 59.3334 5.73317 59.3334 6.39984V37.2665C59.3334 38.5062 58.8334 39.4495 57.8334 40.0963C56.8334 40.7431 55.8445 40.7554 54.8668 40.1332C53.3556 39.511 51.8172 39.011 50.2513 38.6332C48.6855 38.2554 47.0906 38.0665 45.4668 38.0665C42.6668 38.0665 39.9779 38.5332 37.4001 39.4665C34.8223 40.3998 32.4001 41.6887 30.1334 43.3332Z" fill="black"/>
</svg>
