<svg width="36" height="36" viewBox="0 0 36 36" fill="none" xmlns="http://www.w3.org/2000/svg">
<path d="M0 36V8.25H8.25V0H27.75V16.5H36V36H20.65V27.75H15.35V36H0ZM3 33H8.25V27.75H3V33ZM3 24.75H8.25V19.5H3V24.75ZM3 16.5H8.25V11.25H3V16.5ZM11.25 24.75H16.5V19.5H11.25V24.75ZM11.25 16.5H16.5V11.25H11.25V16.5ZM11.25 8.25H16.5V3H11.25V8.25ZM19.5 24.75H24.75V19.5H19.5V24.75ZM19.5 16.5H24.75V11.25H19.5V16.5ZM19.5 8.25H24.75V3H19.5V8.25ZM27.75 33H33V27.75H27.75V33ZM27.75 24.75H33V19.5H27.75V24.75Z" fill="black"/>
</svg>
