<svg width="160" height="160" viewBox="0 0 160 160" fill="none" xmlns="http://www.w3.org/2000/svg">
<g clip-path="url(#clip0_2656_437)">
<path d="M103.333 73.3333C108.856 73.3333 113.333 68.8562 113.333 63.3333C113.333 57.8105 108.856 53.3333 103.333 53.3333C97.8104 53.3333 93.3333 57.8105 93.3333 63.3333C93.3333 68.8562 97.8104 73.3333 103.333 73.3333Z" fill="black"/>
<path d="M56.6667 73.3333C62.1896 73.3333 66.6667 68.8562 66.6667 63.3333C66.6667 57.8105 62.1896 53.3333 56.6667 53.3333C51.1439 53.3333 46.6667 57.8105 46.6667 63.3333C46.6667 68.8562 51.1439 73.3333 56.6667 73.3333Z" fill="black"/>
<path d="M79.9999 106.667C70.1333 106.667 61.6666 101.267 56.9999 93.3333H45.8666C51.1999 107 64.4666 116.667 79.9999 116.667C95.5332 116.667 108.8 107 114.133 93.3333H103C98.3333 101.267 89.8666 106.667 79.9999 106.667ZM79.9333 13.3333C43.1332 13.3333 13.3333 43.2 13.3333 80C13.3333 116.8 43.1332 146.667 79.9333 146.667C116.8 146.667 146.667 116.8 146.667 80C146.667 43.2 116.8 13.3333 79.9333 13.3333ZM79.9999 133.333C50.5332 133.333 26.6666 109.467 26.6666 80C26.6666 50.5333 50.5332 26.6667 79.9999 26.6667C109.467 26.6667 133.333 50.5333 133.333 80C133.333 109.467 109.467 133.333 79.9999 133.333Z" fill="black"/>
</g>
<defs>
<clipPath id="clip0_2656_437">
<rect width="160" height="160" fill="white"/>
</clipPath>
</defs>
</svg>
