<svg width="110" height="150" viewBox="0 0 110 150" fill="none" xmlns="http://www.w3.org/2000/svg">
<path d="M29.9709 0.559252C32.9804 -0.829027 36.5589 0.456347 37.9638 3.43021L48.7492 26.2604C50.1541 29.2342 48.8534 32.7704 45.8439 34.1587C42.8344 35.547 39.2558 34.2616 37.8509 31.2878L27.0655 8.45761C25.6606 5.48375 26.9614 1.94753 29.9709 0.559252Z" fill="white"/>
<path d="M82.4659 11.6411C84.302 8.90628 83.547 5.21841 80.7795 3.40397C78.0119 1.58952 74.2799 2.3356 72.4437 5.07037L58.7348 25.4883C56.8986 28.223 57.6536 31.9109 60.4211 33.7253C63.1887 35.5398 66.9207 34.7937 68.7569 32.0589L82.4659 11.6411Z" fill="white"/>
<path d="M106.313 39.7045C106.846 42.9439 104.62 45.9968 101.342 46.5234L79.1432 50.0889C75.8649 50.6154 72.7754 48.4161 72.2426 45.1767C71.7097 41.9373 73.9353 38.8843 77.2136 38.3578L99.4125 34.7923C102.691 34.2658 105.78 36.465 106.313 39.7045Z" fill="white"/>
<path fill-rule="evenodd" clip-rule="evenodd" d="M77.7754 64.2598C75.2611 61.6309 71.8135 59.8788 67.9578 59.5288V53.5537C67.9578 45.1461 61.0274 38.2811 52.4858 38.2811C44.0433 38.2811 37.0137 45.0056 37.0137 53.5537V82.0389C34.0733 79.3452 30.2566 77.9889 26.5185 77.9889C22.6812 77.9889 18.6951 79.3927 15.6598 82.34C10.8824 86.9788 11.1139 92.7713 11.6797 95.6596C12.24 98.5199 13.4741 100.882 14.3243 102.304C18.5146 109.486 23.0842 116.247 26.9333 121.938L26.941 121.949L27.1746 122.296C30.0558 126.577 32.5354 130.261 34.3567 133.309L34.3675 133.327L34.3782 133.345C35.4396 135.107 37.9456 140.106 39.5839 143.382L42.8946 150H99.62L102.282 141.71C103.607 137.585 105.463 131.471 107.002 125.578C108.394 120.246 110 113.409 110 108.742V84.9855C110 76.5779 103.07 69.7129 94.528 69.7129C93.9126 69.7129 93.3048 69.7486 92.7066 69.8182C89.8721 66.2842 85.4894 64.0097 80.5728 64.0097C79.6196 64.0097 78.6845 64.0954 77.7754 64.2598ZM77.1282 79.2823C77.1282 77.3955 78.6738 75.8947 80.5728 75.8947C81.0406 75.8947 81.487 75.9884 81.8941 76.1572C81.9302 76.1721 81.9659 76.1876 82.0013 76.2037C83.1896 76.7442 84.0174 77.9329 84.0174 79.2823V95.1054L84.018 95.1664C84.041 96.4909 84.8137 97.6263 85.9453 98.1931C86.2454 98.3434 86.5708 98.4537 86.9141 98.517C87.1342 98.5575 87.3616 98.5787 87.5946 98.5787C89.5818 98.5787 91.1717 97.035 91.1717 95.1054L91.0834 84.9855C91.0834 83.0987 92.629 81.5979 94.528 81.5979C95.0719 81.5979 95.5869 81.7245 96.0448 81.9486C97.1686 82.4985 97.9491 83.6352 97.9721 84.9268L97.9726 84.9855V108.742C97.9726 114.53 93.3798 130.139 90.8184 138.115H50.366L50.2498 137.883C48.7249 134.834 46.0477 129.481 44.7132 127.266C42.9966 124.393 40.7966 121.081 38.438 117.571C38.0664 117.018 37.6909 116.46 37.3127 115.898L36.9407 115.345C36.3725 114.505 35.7939 113.649 35.2076 112.779L35.1973 112.764C32.838 109.262 30.3556 105.527 27.9299 101.639C27.4568 100.881 26.9859 100.116 26.5185 99.3468C25.908 98.3418 25.3035 97.3278 24.7078 96.3061C24.5516 96.0469 24.3982 95.7737 24.2547 95.4921C24.187 95.3592 24.1215 95.2245 24.0589 95.0885C23.3537 93.5565 23.0176 91.8582 24.0896 90.8173C24.7078 90.2169 25.5911 89.8739 26.5185 89.8739C27.4017 89.8739 28.285 90.2169 28.9032 90.8173L42.7259 106.126C43.529 107.012 44.7544 107.429 45.9534 107.281C46.205 107.25 46.4554 107.194 46.7005 107.112C48.1137 106.597 49.0411 105.311 49.0411 103.853V53.5537C49.0411 51.6669 50.5868 50.1661 52.4858 50.1661C54.3847 50.1661 55.9304 51.7098 55.9304 53.5537V86.0575C55.9304 87.4425 56.7494 88.6287 57.9465 89.1879C58.4173 89.4079 58.9466 89.5309 59.5075 89.5309C60.0684 89.5309 60.5977 89.4079 61.0685 89.1879C62.2656 88.6287 63.0846 87.4425 63.0846 86.0575V74.7369C63.0846 72.8501 64.6303 71.3493 66.5293 71.3493C66.7906 71.3493 67.0452 71.3785 67.2901 71.4338C67.5224 71.4862 67.7458 71.562 67.9578 71.6584C69.1461 72.1988 69.9739 73.3875 69.9739 74.7369V90.56C69.9739 91.945 70.7929 93.1311 71.9901 93.6904C72.2724 93.8223 72.5757 93.9193 72.8943 93.9759C73.107 94.0136 73.3265 94.0334 73.551 94.0334C75.5383 94.0334 77.1282 92.4896 77.1282 90.56V79.2823ZM34.9666 90.0877C34.968 90.0878 34.9817 90.1121 35.0037 90.1603C34.9762 90.1117 34.9652 90.0876 34.9666 90.0877Z" fill="white"/>
<path d="M8.54651 27.1657C5.53382 25.7842 1.95822 27.0776 0.560174 30.0546C-0.83787 33.0316 0.471059 36.5649 3.48375 37.9464L26.3358 48.4254C29.3485 49.8069 32.9241 48.5135 34.3221 45.5364C35.7201 42.5594 34.4112 39.0261 31.3985 37.6446L8.54651 27.1657Z" fill="white"/>
</svg>
