<svg width="117" height="150" viewBox="0 0 117 150" fill="none" xmlns="http://www.w3.org/2000/svg">
<path d="M31.8781 0.559252C35.0791 -0.829027 38.8854 0.456347 40.3797 3.43021L51.8515 26.2604C53.3458 29.2342 51.9622 32.7704 48.7612 34.1587C45.5602 35.547 41.7539 34.2616 40.2596 31.2878L28.7879 8.45761C27.2935 5.48375 28.6771 1.94753 31.8781 0.559252Z" fill="black"/>
<path d="M87.7137 11.6411C89.6667 8.90628 88.8637 5.21841 85.92 3.40397C82.9763 1.58952 79.0068 2.3356 77.0538 5.07037L62.4724 25.4883C60.5194 28.223 61.3225 31.9109 64.2661 33.7253C67.2098 35.5398 71.1793 34.7937 73.1323 32.0589L87.7137 11.6411Z" fill="black"/>
<path d="M113.078 39.7045C113.645 42.9439 111.278 45.9968 107.791 46.5234L84.1796 50.0889C80.6927 50.6154 77.4066 48.4161 76.8398 45.1767C76.2731 41.9373 78.6403 38.8843 82.1272 38.3578L105.739 34.7923C109.226 34.2658 112.512 36.465 113.078 39.7045Z" fill="black"/>
<path fill-rule="evenodd" clip-rule="evenodd" d="M82.7247 64.2598C80.0504 61.6309 76.3835 59.8788 72.2823 59.5288V53.5537C72.2823 45.1461 64.911 38.2811 55.8258 38.2811C46.8461 38.2811 39.3692 45.0056 39.3692 53.5537V82.0389C36.2416 79.3452 32.1821 77.9889 28.206 77.9889C24.1245 77.9889 19.8848 79.3927 16.6563 82.34C11.5749 86.9788 11.8211 92.7713 12.423 95.6596C13.0189 98.5199 14.3316 100.882 15.2359 102.304C19.6928 109.486 24.5532 116.247 28.6473 121.938L28.6555 121.949L28.9039 122.296C31.9684 126.577 34.6058 130.261 36.5431 133.309L36.5545 133.327L36.566 133.345C37.6949 135.107 40.3603 140.106 42.1029 143.382L45.6243 150H105.96L108.791 141.71C110.2 137.585 112.174 131.471 113.811 125.578C115.292 120.246 117 113.409 117 108.742V84.9855C117 76.5779 109.629 69.7129 100.543 69.7129C99.8889 69.7129 99.2424 69.7486 98.6061 69.8182C95.5913 66.2842 90.9296 64.0097 85.7001 64.0097C84.6863 64.0097 83.6917 64.0954 82.7247 64.2598ZM82.0363 79.2823C82.0363 77.3955 83.6803 75.8947 85.7001 75.8947C86.1978 75.8947 86.6726 75.9884 87.1056 76.1572C87.1439 76.1721 87.1819 76.1876 87.2196 76.2037C88.4835 76.7442 89.364 77.9329 89.364 79.2823V95.1054L89.3646 95.1664C89.3891 96.4909 90.2109 97.6263 91.4145 98.1931C91.7337 98.3434 92.0798 98.4537 92.445 98.517C92.6791 98.5575 92.921 98.5787 93.1688 98.5787C95.2825 98.5787 96.9735 97.035 96.9735 95.1054L96.8796 84.9855C96.8796 83.0987 98.5236 81.5979 100.543 81.5979C101.122 81.5979 101.67 81.7245 102.157 81.9486C103.352 82.4985 104.182 83.6352 104.207 84.9268L104.207 84.9855V108.742C104.207 114.53 99.3221 130.139 96.5977 138.115H53.5711L53.4476 137.883C51.8255 134.834 48.978 129.481 47.5586 127.266C45.7327 124.393 43.3927 121.081 40.8841 117.571C40.4888 117.018 40.0894 116.46 39.6871 115.898L39.2915 115.345C38.6871 114.505 38.0717 113.649 37.4481 112.779L37.4371 112.764C34.9277 109.262 32.2873 105.527 29.7072 101.639C29.2041 100.881 28.7032 100.116 28.206 99.3468C27.5567 98.3418 26.9137 97.3278 26.2802 96.3061C26.114 96.0469 25.9508 95.7737 25.7981 95.4921C25.7261 95.3592 25.6565 95.2245 25.5899 95.0885C24.8398 93.5565 24.4823 91.8582 25.6226 90.8173C26.2802 90.2169 27.2196 89.8739 28.206 89.8739C29.1455 89.8739 30.0849 90.2169 30.7425 90.8173L45.4449 106.126C46.299 107.012 47.6024 107.429 48.8777 107.281C49.1453 107.25 49.4117 107.194 49.6724 107.112C51.1755 106.597 52.1619 105.311 52.1619 103.853V53.5537C52.1619 51.6669 53.8059 50.1661 55.8258 50.1661C57.8456 50.1661 59.4896 51.7098 59.4896 53.5537V86.0575C59.4896 87.4425 60.3607 88.6287 61.634 89.1879C62.1348 89.4079 62.6977 89.5309 63.2944 89.5309C63.891 89.5309 64.4539 89.4079 64.9547 89.1879C66.228 88.6287 67.0991 87.4425 67.0991 86.0575V74.7369C67.0991 72.8501 68.7431 71.3493 70.763 71.3493C71.0409 71.3493 71.3118 71.3785 71.5722 71.4338C71.8192 71.4862 72.0569 71.562 72.2823 71.6584C73.5463 72.1988 74.4268 73.3875 74.4268 74.7369V90.56C74.4268 91.945 75.2979 93.1311 76.5712 93.6904C76.8715 93.8223 77.1942 93.9193 77.533 93.9759C77.7592 94.0136 77.9927 94.0334 78.2316 94.0334C80.3453 94.0334 82.0363 92.4896 82.0363 90.56V79.2823ZM37.1918 90.0877C37.1932 90.0878 37.2078 90.1121 37.2312 90.1603C37.202 90.1117 37.1903 90.0876 37.1918 90.0877Z" fill="black"/>
<path d="M9.09038 27.1657C5.88597 25.7842 2.08283 27.0776 0.595822 30.0546C-0.891189 33.0316 0.501036 36.5649 3.70544 37.9464L28.0117 48.4254C31.2161 49.8069 35.0192 48.5135 36.5062 45.5364C37.9932 42.5594 36.601 39.0261 33.3966 37.6446L9.09038 27.1657Z" fill="black"/>
</svg>
