<svg width="120" height="120" viewBox="0 0 120 120" fill="none" xmlns="http://www.w3.org/2000/svg">
<path d="M113.333 13.3333V6.66667C113.333 3 110.333 0 106.667 0H93.3333C89.6667 0 86.6667 3 86.6667 6.66667V13.3333H80V40C80 43.6667 83 46.6667 86.6667 46.6667H93.3333V93.3333C93.3333 100.667 87.3333 106.667 80 106.667C72.6667 106.667 66.6667 100.667 66.6667 93.3333V26.6667C66.6667 11.9333 54.7333 0 40 0C25.2667 0 13.3333 11.9333 13.3333 26.6667V73.3333H6.66667C3 73.3333 0 76.3333 0 80V106.667H6.66667V113.333C6.66667 117 9.66667 120 13.3333 120H26.6667C30.3333 120 33.3333 117 33.3333 113.333V106.667H40V80C40 76.3333 37 73.3333 33.3333 73.3333H26.6667V26.6667C26.6667 19.3333 32.6667 13.3333 40 13.3333C47.3333 13.3333 53.3333 19.3333 53.3333 26.6667V93.3333C53.3333 108.067 65.2667 120 80 120C94.7333 120 106.667 108.067 106.667 93.3333V46.6667H113.333C117 46.6667 120 43.6667 120 40V13.3333H113.333Z" fill="white"/>
</svg>
